<svg width="136" height="31" viewBox="0 0 136 31" fill="none" xmlns="http://www.w3.org/2000/svg">
<path d="M9.488 23.9485C8.29333 23.9485 7.248 23.7245 6.352 23.2765C5.456 22.8285 4.73067 22.1991 4.176 21.3885L3.728 23.5645H0.0800002V0.524452H4.176V9.96445C4.688 9.26045 5.36 8.64179 6.192 8.10845C7.04533 7.57512 8.144 7.30845 9.488 7.30845C10.9813 7.30845 12.3147 7.67112 13.488 8.39645C14.6613 9.12179 15.5893 10.1138 16.272 11.3725C16.9547 12.6311 17.296 14.0605 17.296 15.6605C17.296 17.2605 16.9547 18.6898 16.272 19.9485C15.5893 21.1858 14.6613 22.1671 13.488 22.8925C12.3147 23.5965 10.9813 23.9485 9.488 23.9485ZM8.624 20.3645C9.92533 20.3645 11.0027 19.9271 11.856 19.0525C12.7093 18.1778 13.136 17.0471 13.136 15.6605C13.136 14.2738 12.7093 13.1325 11.856 12.2365C11.0027 11.3405 9.92533 10.8925 8.624 10.8925C7.30133 10.8925 6.21333 11.3405 5.36 12.2365C4.528 13.1111 4.112 14.2418 4.112 15.6285C4.112 17.0151 4.528 18.1565 5.36 19.0525C6.21333 19.9271 7.30133 20.3645 8.624 20.3645ZM25.467 23.9485C24.1017 23.9485 22.9817 23.7351 22.107 23.3085C21.2323 22.8605 20.5817 22.2738 20.155 21.5485C19.7283 20.8231 19.515 20.0231 19.515 19.1485C19.515 17.6765 20.091 16.4818 21.243 15.5645C22.395 14.6471 24.123 14.1885 26.427 14.1885H30.459V13.8045C30.459 12.7165 30.1497 11.9165 29.531 11.4045C28.9123 10.8925 28.1443 10.6365 27.227 10.6365C26.395 10.6365 25.6697 10.8391 25.051 11.2445C24.4323 11.6285 24.0483 12.2045 23.899 12.9725H19.899C20.0057 11.8205 20.3897 10.8178 21.051 9.96445C21.7337 9.11112 22.6083 8.46045 23.675 8.01245C24.7417 7.54312 25.9363 7.30845 27.259 7.30845C29.5203 7.30845 31.3017 7.87379 32.603 9.00445C33.9043 10.1351 34.555 11.7351 34.555 13.8045V23.5645H31.067L30.683 21.0045C30.2137 21.8578 29.5523 22.5618 28.699 23.1165C27.867 23.6711 26.7897 23.9485 25.467 23.9485ZM26.395 20.7485C27.5683 20.7485 28.475 20.3645 29.115 19.5965C29.7763 18.8285 30.1923 17.8791 30.363 16.7485H26.875C25.787 16.7485 25.0083 16.9511 24.539 17.3565C24.0697 17.7405 23.835 18.2205 23.835 18.7965C23.835 19.4151 24.0697 19.8951 24.539 20.2365C25.0083 20.5778 25.627 20.7485 26.395 20.7485ZM37.5038 23.5645V7.69245H41.1198L41.4398 10.3805C41.9304 9.44179 42.6344 8.69512 43.5518 8.14045C44.4904 7.58579 45.5891 7.30845 46.8478 7.30845C48.8104 7.30845 50.3358 7.92712 51.4238 9.16445C52.5118 10.4018 53.0558 12.2151 53.0558 14.6045V23.5645H48.9598V14.9885C48.9598 13.6231 48.6824 12.5778 48.1278 11.8525C47.5731 11.1271 46.7091 10.7645 45.5358 10.7645C44.3838 10.7645 43.4344 11.1698 42.6878 11.9805C41.9624 12.7911 41.5998 13.9218 41.5998 15.3725V23.5645H37.5038ZM68.6205 30.6045V21.2925C68.1085 21.9965 67.4258 22.6151 66.5725 23.1485C65.7405 23.6818 64.6525 23.9485 63.3085 23.9485C61.8152 23.9485 60.4818 23.5858 59.3085 22.8605C58.1352 22.1351 57.2072 21.1431 56.5245 19.8845C55.8418 18.6258 55.5005 17.1965 55.5005 15.5965C55.5005 13.9965 55.8418 12.5778 56.5245 11.3405C57.2072 10.0818 58.1352 9.10045 59.3085 8.39645C60.4818 7.67112 61.8152 7.30845 63.3085 7.30845C64.5032 7.30845 65.5485 7.53245 66.4445 7.98045C67.3405 8.42845 68.0658 9.05779 68.6205 9.86845L69.0685 7.69245H72.7165V30.6045H68.6205ZM64.1725 20.3645C65.4952 20.3645 66.5725 19.9271 67.4045 19.0525C68.2578 18.1565 68.6845 17.0151 68.6845 15.6285C68.6845 14.2418 68.2578 13.1111 67.4045 12.2365C66.5725 11.3405 65.4952 10.8925 64.1725 10.8925C62.8712 10.8925 61.7938 11.3298 60.9405 12.2045C60.0872 13.0791 59.6605 14.2098 59.6605 15.5965C59.6605 16.9831 60.0872 18.1245 60.9405 19.0205C61.7938 19.9165 62.8712 20.3645 64.1725 20.3645ZM81.8795 23.9485C79.8955 23.9485 78.3595 23.3298 77.2715 22.0925C76.2048 20.8551 75.6715 19.0418 75.6715 16.6525V7.69245H79.7355V16.2685C79.7355 17.6338 80.0128 18.6791 80.5675 19.4045C81.1222 20.1298 81.9968 20.4925 83.1915 20.4925C84.3222 20.4925 85.2502 20.0871 85.9755 19.2765C86.7222 18.4658 87.0955 17.3351 87.0955 15.8845V7.69245H91.1915V23.5645H87.5755L87.2555 20.8765C86.7648 21.8151 86.0502 22.5618 85.1115 23.1165C84.1942 23.6711 83.1168 23.9485 81.8795 23.9485ZM102.148 23.9485C100.548 23.9485 99.1296 23.6071 97.8922 22.9245C96.6549 22.2418 95.6842 21.2818 94.9802 20.0445C94.2762 18.8071 93.9242 17.3778 93.9242 15.7565C93.9242 14.1138 94.2656 12.6525 94.9482 11.3725C95.6522 10.0925 96.6122 9.10045 97.8282 8.39645C99.0656 7.67112 100.516 7.30845 102.18 7.30845C103.738 7.30845 105.114 7.64979 106.308 8.33245C107.503 9.01512 108.431 9.95379 109.092 11.1485C109.775 12.3218 110.116 13.6338 110.116 15.0845C110.116 15.3191 110.106 15.5645 110.084 15.8205C110.084 16.0765 110.074 16.3431 110.052 16.6205H97.9882C98.0736 17.8578 98.5002 18.8285 99.2682 19.5325C100.058 20.2365 101.007 20.5885 102.116 20.5885C102.948 20.5885 103.642 20.4071 104.196 20.0445C104.772 19.6605 105.199 19.1698 105.476 18.5725H109.636C109.338 19.5751 108.836 20.4925 108.132 21.3245C107.45 22.1351 106.596 22.7751 105.572 23.2445C104.57 23.7138 103.428 23.9485 102.148 23.9485ZM102.18 10.6365C101.178 10.6365 100.292 10.9245 99.5242 11.5005C98.7562 12.0551 98.2656 12.9085 98.0522 14.0605H105.956C105.892 13.0151 105.508 12.1831 104.804 11.5645C104.1 10.9458 103.226 10.6365 102.18 10.6365ZM120.313 23.9485C118.713 23.9485 117.295 23.6071 116.057 22.9245C114.82 22.2418 113.849 21.2818 113.145 20.0445C112.441 18.8071 112.089 17.3778 112.089 15.7565C112.089 14.1138 112.431 12.6525 113.113 11.3725C113.817 10.0925 114.777 9.10045 115.993 8.39645C117.231 7.67112 118.681 7.30845 120.345 7.30845C121.903 7.30845 123.279 7.64979 124.473 8.33245C125.668 9.01512 126.596 9.95379 127.257 11.1485C127.94 12.3218 128.281 13.6338 128.281 15.0845C128.281 15.3191 128.271 15.5645 128.249 15.8205C128.249 16.0765 128.239 16.3431 128.217 16.6205H116.153C116.239 17.8578 116.665 18.8285 117.433 19.5325C118.223 20.2365 119.172 20.5885 120.281 20.5885C121.113 20.5885 121.807 20.4071 122.361 20.0445C122.937 19.6605 123.364 19.1698 123.641 18.5725H127.801C127.503 19.5751 127.001 20.4925 126.297 21.3245C125.615 22.1351 124.761 22.7751 123.737 23.2445C122.735 23.7138 121.593 23.9485 120.313 23.9485ZM120.345 10.6365C119.343 10.6365 118.457 10.9245 117.689 11.5005C116.921 12.0551 116.431 12.9085 116.217 14.0605H124.121C124.057 13.0151 123.673 12.1831 122.969 11.5645C122.265 10.9458 121.391 10.6365 120.345 10.6365ZM132.526 23.7885C131.78 23.7885 131.161 23.5538 130.67 23.0845C130.201 22.6151 129.966 22.0498 129.966 21.3885C129.966 20.7058 130.201 20.1298 130.67 19.6605C131.161 19.1911 131.78 18.9565 132.526 18.9565C133.273 18.9565 133.881 19.1911 134.35 19.6605C134.841 20.1298 135.086 20.7058 135.086 21.3885C135.086 22.0498 134.841 22.6151 134.35 23.0845C133.881 23.5538 133.273 23.7885 132.526 23.7885Z" fill="#5BB5A2"/>
</svg>
